<svg width="1168" height="863" viewBox="0 0 1168 863" fill="none" xmlns="http://www.w3.org/2000/svg">
<g clip-path="url(#clip0)">
<path opacity="0.1" d="M879.43 862.87C933.245 862.87 976.87 855.863 976.87 847.22C976.87 838.577 933.245 831.57 879.43 831.57C825.615 831.57 781.99 838.577 781.99 847.22C781.99 855.863 825.615 862.87 879.43 862.87Z" fill="#6C63FF"/>
<path d="M967.66 465.65C967.66 465.65 963.72 465.1 963.72 459.37C963.72 453.64 960.9 442.91 960.9 442.91C960.9 442.91 958.46 424.24 955.09 421.28C951.72 418.32 947.39 400.94 947.39 400.94C947.39 400.94 946.65 391.51 945.14 389.48C943.63 387.45 941.59 382.48 938.58 375.39C935.57 368.3 923.05 363.44 923.05 363.44C923.05 363.44 900.36 350.28 893.93 345.99C893.342 345.634 892.792 345.219 892.29 344.75C891.17 343.29 886.29 343.26 886.29 343.26C885.78 340.03 885.29 336.33 885.13 332.98C885.13 332.62 885.13 332.26 885.13 331.9C892.3 327.662 897.7 320.98 900.34 313.08C900.46 312.7 900.56 312.31 900.67 311.92C901.109 311.785 901.514 311.558 901.859 311.254C902.203 310.951 902.48 310.578 902.67 310.16C903.24 308.87 903.26 307.37 903.98 306.16C904.82 304.74 906.42 303.98 907.68 302.92C910.86 300.21 911.68 295.66 911.53 291.53C911.43 288.17 910.89 284.79 911.1 281.46C911.1 281.18 911.1 280.9 911.16 280.62C911.22 280.13 911.29 279.62 911.38 279.14C911.87 276.66 912.94 274.32 913.54 271.86C914.14 269.4 914.2 266.63 912.8 264.51C910.75 261.4 906.48 260.78 902.73 260.51C898.48 260.15 894.73 260.61 891.96 257.08C890.689 255.236 889.257 253.509 887.68 251.92C887.12 251.4 881.68 248.07 881.68 247.86C876.357 245.385 870.319 244.92 864.68 246.55C861.85 247.37 859.2 248.71 856.33 249.38C850.17 250.84 843.07 249.26 837.83 252.79C834.91 254.79 833.16 257.98 831.52 261.07C830.187 263.617 828.833 266.167 827.46 268.72C825.24 272.91 823 277.17 822.07 281.81C821.875 282.823 821.752 283.849 821.7 284.88C821.7 285.25 821.7 285.62 821.7 285.99C821.7 286.15 821.7 286.31 821.7 286.47C821.7 286.81 821.7 287.15 821.76 287.47C821.82 287.79 821.76 287.88 821.83 288.09C821.9 288.3 821.92 288.77 821.98 289.09C822.04 289.41 822.16 289.98 822.28 290.41C822.28 290.6 822.4 290.78 822.46 290.97C822.52 291.16 822.68 291.64 822.81 291.97C822.94 292.3 822.95 292.32 823.03 292.49C823.18 292.84 823.36 293.18 823.54 293.49C823.62 293.62 823.68 293.75 823.76 293.88C824.034 294.348 824.342 294.796 824.68 295.22C826.81 297.89 829.97 299.59 832.3 302.09C832.3 302.19 832.3 302.29 832.3 302.39C832.3 302.66 832.3 302.93 832.3 303.21C832.443 308.786 833.946 314.243 836.678 319.105C839.411 323.968 843.291 328.089 847.98 331.11C847.98 331.49 848.03 331.88 848.05 332.27C848.245 335.235 848.208 338.211 847.94 341.17C847.532 340.692 847.022 340.31 846.448 340.054C845.873 339.798 845.249 339.674 844.62 339.69C844.19 339.669 843.76 339.706 843.34 339.8L843.25 339.73V339.82C841.05 340.36 838.34 342.65 835.75 349.16C835.75 349.16 827.87 358.04 821.87 357.67C815.87 357.3 800.68 366.92 800.68 366.92C800.68 366.92 785.86 376.53 782.68 386.33C780.902 391.888 778.768 397.326 776.29 402.61L757.92 440.33L754.55 470.33C754.55 470.33 756.42 483.64 756.05 485.68C755.68 487.72 763.74 506.02 763.74 506.02C763.74 506.02 790.37 552.8 801.25 555.2L802.03 554.66C802.498 554.896 802.991 555.077 803.5 555.2L805.74 553.63C805.879 555.388 805.818 557.156 805.56 558.9C804.07 563.53 806.13 593.67 808.75 599.58C811.37 605.49 810.44 682.99 810.44 682.99L810.07 689.82C810.07 689.82 810.07 690.04 810.16 690.42L810.07 692.04L810.34 692.18C810.62 694.353 810.529 696.558 810.07 698.7C809.13 701.7 808.75 710.17 808.75 710.17C808.75 710.17 801.25 758.05 804.81 767.67C808.37 777.29 811.38 787.83 811.38 787.83C811.38 787.83 815.13 799.83 811.56 801.83C807.99 803.83 797.88 807.38 799.94 812.37C801.84 816.99 809.05 829.37 810.12 831.18L810.03 832.18L808.56 848.11C808.798 850.213 809.368 852.266 810.25 854.19C811.86 857.67 814.98 861.26 820.94 860.87C821.94 860.8 823.09 860.69 824.22 860.54C835.11 859.07 848.51 854.21 848.51 854.21C847.815 853.77 847.18 853.242 846.62 852.64C846.085 852.122 845.661 851.499 845.373 850.812C845.086 850.124 844.942 849.385 844.95 848.64C845.11 845.73 839.68 831.92 838.32 828.51L838.01 827.75C838.01 827.75 850.39 814.8 848.33 803.34C848.33 803.34 834.63 795.34 839.14 790.94C843.65 786.54 851.71 773.94 851.71 773.94C851.71 773.94 852.08 726.79 851.71 719.76C851.324 714.87 851.556 709.952 852.4 705.12C852.55 704.4 852.73 703.69 852.92 702.98C859.163 703.922 865.467 704.4 871.78 704.41C874.087 704.41 876.42 704.363 878.78 704.27C878.78 704.937 878.81 705.657 878.87 706.43C879.39 718.11 880.36 738.6 881.15 746.21C882.27 757.11 888.46 786.52 888.46 786.52C888.46 786.52 876.65 794.09 890.52 812.78C890.52 812.78 890.52 819.54 889.6 820.53C888.617 823.737 887.826 826.999 887.23 830.3C886.65 833.81 886.41 837.38 887.35 839.22C889.6 843.64 903.1 843.28 903.1 843.28C903.208 843.255 903.319 843.238 903.43 843.23C905.978 842.961 908.554 843.202 911.008 843.941C913.462 844.679 915.744 845.899 917.72 847.53C922.85 851.65 942.31 849.85 952.86 848.53C956.99 848 959.75 847.53 959.75 847.53C959.883 847.062 959.93 846.575 959.89 846.09C959.78 843.5 957.75 837.82 943.99 832.75C943.99 832.75 931.05 824.05 931.23 816.47H930.94H929.45C930.39 816.44 931.05 816.44 931.05 816.44C931.05 816.44 925.98 797.95 928.05 796.44C930.12 794.93 923.92 774.44 923.92 774.44C923.92 774.44 920.37 740.04 920.17 737.64C920.183 735.572 920.5 733.516 921.11 731.54L920.17 712.67C920.17 712.67 919.99 706.4 920.17 704.36C920.15 702.589 920.01 700.822 919.75 699.07C919.66 698.37 919.57 697.64 919.47 696.92C924.32 695.69 927.47 694.56 927.47 694.56L926.91 628.91C931.03 620.91 931.79 603.35 931.77 590.91C931.77 582.91 931.41 576.99 931.41 576.99L937.04 567.8C937.04 567.8 938.34 556.8 936.28 554.39C935.37 553.3 935.78 552.17 936.53 551.24C936.925 550.917 937.342 550.622 937.78 550.36C937.731 550.29 937.687 550.217 937.65 550.14C938.043 549.812 938.461 549.514 938.9 549.25C938.9 549.25 936.9 546.15 938.69 544.84C940.37 545.98 941.87 546.89 943.01 547.54C942.93 548.27 942.85 548.69 942.85 548.69L943.33 547.69C944.43 548.31 945.1 548.69 945.1 548.69C945.1 548.69 953.92 531.12 953.73 528.54C953.54 525.96 959.73 515.04 959.73 515.04C959.73 515.04 960.48 509.3 963.86 506.9C967.24 504.5 966.48 487.11 966.48 487.11C966.48 487.11 967.42 478.05 969.67 474.36C971.92 470.67 967.66 465.65 967.66 465.65ZM798.9 457.94L799.07 462.13C798.07 460.52 797.35 459.37 797.35 459.37L798.9 457.94Z" fill="url(#paint0_linear)"/>
<path d="M945.62 541.09L943.46 550.29C943.46 550.29 926.16 541.44 923.05 530.24C919.94 519.04 928.26 514.77 928.26 514.77L944.39 521.59L945.62 541.09Z" fill="white"/>
<path opacity="0.1" d="M945.62 541.09L943.46 550.29C943.46 550.29 926.16 541.44 923.05 530.24C919.94 519.04 928.26 514.77 928.26 514.77L944.39 521.59L945.62 541.09Z" fill="black"/>
<path d="M848.53 854.2C848.53 854.2 832.53 860.08 821.53 860.82C815.69 861.21 812.62 857.63 811.04 854.18C810.181 852.277 809.622 850.253 809.38 848.18L810.83 832.33L811.59 823.9L834.96 817.82L838.27 827.95L838.58 828.71C839.9 832.1 845.24 845.84 845.08 848.71C845.067 849.452 845.205 850.189 845.485 850.877C845.765 851.565 846.182 852.188 846.71 852.71C847.251 853.282 847.863 853.782 848.53 854.2Z" fill="#F8F8F8"/>
<path d="M957.77 846.14C957.811 846.625 957.764 847.113 957.63 847.58C957.63 847.58 923.41 853.28 916.41 847.58C914.442 845.915 912.149 844.679 909.676 843.95C907.204 843.222 904.606 843.017 902.05 843.35C902.05 843.35 888.81 843.71 886.6 839.35C885.68 837.52 885.92 833.97 886.49 830.48C887.072 827.197 887.847 823.952 888.81 820.76L889.34 820.34L892.49 817.81L929.37 816.72H929.65C929.47 824.26 942.16 832.91 942.16 832.91C955.67 837.91 957.66 843.56 957.77 846.14Z" fill="#F8F8F8"/>
<path opacity="0.1" d="M957.78 846.14C957.815 846.625 957.765 847.113 957.63 847.58C957.63 847.58 923.41 853.28 916.42 847.58C914.451 845.914 912.156 844.677 909.681 843.948C907.207 843.22 904.608 843.016 902.05 843.35C902.05 843.35 888.8 843.71 886.59 839.35C885.68 837.52 885.91 833.97 886.48 830.47C891.58 830.98 899.63 832.25 902.79 835.29C907.57 839.89 915.67 844.49 920.63 844.86C924.55 845.1 947.86 845.84 957.78 846.14Z" fill="black"/>
<path opacity="0.1" d="M848.53 854.2C848.53 854.2 832.53 860.08 821.53 860.82C815.69 861.21 812.62 857.63 811.04 854.18C815.12 855.55 820.77 856.98 823.74 855.67C827.26 854.1 839.74 853.1 846.74 852.67C847.268 853.255 847.869 853.77 848.53 854.2Z" fill="black"/>
<path d="M872.27 380.31C859.07 375.18 842.09 358.23 846.33 350.31C847.267 348.31 847.826 346.154 847.98 343.95C848.253 340.958 848.293 337.949 848.1 334.95C847.802 330.036 847.211 325.144 846.33 320.3C846.33 320.3 887.54 321.23 885.14 327.3C884.44 329.09 884.32 332.18 884.52 335.63C884.72 339.08 885.21 343.01 885.73 346.32C886.44 350.85 887.17 354.32 887.17 354.32C887.17 354.32 884.64 357.85 883.17 358.04C881.7 358.23 891.21 387.66 872.27 380.31Z" fill="#CF6F80"/>
<path opacity="0.1" d="M838.54 828.66L838.23 829C825.91 814.1 811.01 832.68 811.01 832.68L810.79 832.28L811.55 823.85L834.92 817.77L838.23 827.9L838.54 828.66Z" fill="black"/>
<path opacity="0.1" d="M929.67 817.77C929.67 817.77 920.67 817.59 915.87 821.83C911.07 826.07 887.87 822.74 888.87 821.83C889.162 821.368 889.34 820.844 889.39 820.3L892.54 817.77L929.42 816.68C929.56 817.38 929.67 817.77 929.67 817.77Z" fill="black"/>
<path d="M853.87 700.76C853.201 702.418 852.692 704.135 852.35 705.89C851.516 710.696 851.284 715.587 851.66 720.45C852.03 727.45 851.66 774.36 851.66 774.36C851.66 774.36 843.75 786.87 839.33 791.28C834.91 795.69 848.33 803.61 848.33 803.61C850.33 815.02 838.21 827.9 838.21 827.9C825.89 813 810.99 831.57 810.99 831.57C810.99 831.57 802.89 817.57 800.87 812.57C798.85 807.57 808.78 804.12 812.27 802.08C815.76 800.04 812.09 788.08 812.09 788.08C812.09 788.08 809.15 777.59 805.65 768.02C802.15 758.45 809.51 710.82 809.51 710.82C809.51 710.82 809.89 702.35 810.8 699.4C811.254 697.271 811.345 695.08 811.07 692.92C811.01 692.19 810.94 691.59 810.89 691.17C810.84 690.75 810.8 690.57 810.8 690.57L810.94 690.33L815.94 681.01C815.94 681.01 856.27 694.89 853.87 700.76Z" fill="#024ED5"/>
<path d="M929.67 816.67C929.67 816.67 920.67 816.48 915.87 820.67C911.07 824.86 887.87 821.59 888.87 820.67C889.87 819.75 889.78 812.95 889.78 812.95C876.17 794.36 887.78 786.82 887.78 786.82C887.78 786.82 881.71 757.57 880.61 746.72C879.84 739.15 878.89 718.72 878.38 707.15C878.16 702.15 878.03 698.7 878.03 698.7L889.05 696.51L890.48 696.23L917.3 690.84C917.3 690.84 918.04 695.84 918.54 699.93C918.793 701.676 918.93 703.436 918.95 705.2C918.78 707.2 918.95 713.47 918.95 713.47L919.87 732.23C919.276 734.199 918.967 736.243 918.95 738.3C919.14 740.7 922.63 774.91 922.63 774.91C922.63 774.91 928.7 795.33 926.63 796.8C924.56 798.27 929.67 816.67 929.67 816.67Z" fill="#024ED5"/>
<path opacity="0.1" d="M885.14 327.33C884.44 329.12 884.32 332.21 884.52 335.66C879 338.984 872.654 340.683 866.212 340.563C859.77 340.443 853.492 338.508 848.1 334.98C847.802 330.066 847.211 325.174 846.33 320.33C846.33 320.33 887.54 321.26 885.14 327.33Z" fill="black"/>
<path d="M901.05 305.25C901.159 314.323 897.659 323.068 891.32 329.56C884.981 336.053 876.323 339.761 867.25 339.87C858.177 339.979 849.432 336.479 842.94 330.14C836.447 323.801 832.739 315.143 832.63 306.07C832.63 305.79 832.63 305.53 832.63 305.25C832.63 296.174 836.235 287.47 842.653 281.053C849.07 274.635 857.774 271.03 866.85 271.03C875.926 271.03 884.63 274.635 891.047 281.053C897.465 287.47 901.07 296.174 901.07 305.25H901.05Z" fill="#CF6F80"/>
<path opacity="0.1" d="M872.27 380.31C859.07 375.18 842.09 358.23 846.33 350.31C847.267 348.31 847.826 346.154 847.98 343.95L866.05 358.81L877.23 367.98L885.73 346.35C886.44 350.88 887.17 354.35 887.17 354.35C887.17 354.35 884.64 357.88 883.17 358.07C881.7 358.26 891.21 387.66 872.27 380.31Z" fill="black"/>
<path d="M919 445.98L903.91 699.48L884.23 700.77L833.26 553.78L841.62 379.27L843.39 342.4L866.05 361.01L877.23 370.18L885.98 347.91L902.25 362.09L919 445.98Z" fill="#024ED5"/>
<path opacity="0.1" d="M853.87 700.76C853.201 702.418 852.692 704.135 852.35 705.89C838.016 703.683 824.095 699.338 811.05 693L810.78 692.86L810.87 691.25V690.41L815.87 681.09C815.87 681.09 856.27 694.89 853.87 700.76Z" fill="black"/>
<path opacity="0.1" d="M889.38 705.93C885.719 706.556 882.027 706.98 878.32 707.2C878.1 702.2 877.97 698.75 877.97 698.75L889.05 696.51L889.38 705.93Z" fill="black"/>
<path opacity="0.1" d="M918.58 699.93C911.47 701.78 900.48 703.86 890.66 702.56L890.52 696.23L917.34 690.84C917.34 690.84 918.05 695.8 918.58 699.93Z" fill="black"/>
<path opacity="0.1" d="M890.48 703.72C849.48 710.72 811.93 690.65 811.93 690.65L812.29 683.85C812.29 683.85 813.22 606.76 810.64 600.85C808.06 594.94 806.05 565.01 807.51 560.44C808.97 555.87 802.18 486.87 802.18 486.87L801.08 458.87L760.79 442.5L778.79 404.97C781.221 399.709 783.312 394.298 785.05 388.77C788.18 379.02 802.71 369.45 802.71 369.45C802.71 369.45 817.61 359.89 823.5 360.25C829.39 360.61 837.11 351.79 837.11 351.79C842.81 337.26 847.97 343.79 847.97 343.79C847.97 344.49 847.97 343.79 847.69 345.94C845.69 361.89 880.03 412.29 880.52 413.19L883.83 492.85L887.14 593.66L890.48 703.72Z" fill="black"/>
<path d="M889.38 703.72C848.38 710.72 810.82 690.65 810.82 690.65L811.19 683.85C811.19 683.85 812.11 606.76 809.53 600.85C806.95 594.94 804.94 564.98 806.41 560.37C807.88 555.76 801.05 486.83 801.05 486.83L799.94 458.83L759.66 442.46L777.66 404.93C780.085 399.67 782.176 394.263 783.92 388.74C787.05 379.02 801.63 369.44 801.63 369.44C801.63 369.44 816.53 359.88 822.41 360.24C828.29 360.6 836.05 351.79 836.05 351.79C841.76 337.26 848.05 343.79 848.05 343.79C848.05 344.49 847.45 344.79 847.77 345.94C852.17 361.41 879.01 412.29 879.5 413.19L882.81 492.85L886.05 593.71L889.38 703.72Z" fill="#F8F8F8"/>
<path opacity="0.1" d="M878.33 415.44C873.92 413.6 850.56 386.93 850.56 386.93V380.86C849.71 378.86 844.65 380.08 840.56 381.48L842.32 344.61L844.32 346.27C848.69 361.73 877.85 414.55 878.33 415.44Z" fill="black"/>
<path d="M879.44 413.24C875.02 411.39 851.66 384.73 851.66 384.73V378.65C850.81 376.65 845.76 377.87 841.66 379.27L843.39 342.44L845.39 344.09C849.8 359.53 878.95 412.34 879.44 413.24Z" fill="#F8F8F8"/>
<path opacity="0.1" d="M811.93 546.24C812.48 546.24 840.44 543.3 840.44 543.3C840.44 543.3 857.37 576.6 856.26 584.69C855.15 592.78 853.14 599.96 846.33 598.69C839.52 597.42 809.68 599.69 809.68 599.69L811.93 546.24Z" fill="black"/>
<path d="M810.82 544.03C811.38 544.03 839.34 541.09 839.34 541.09C839.34 541.09 856.26 574.44 855.16 582.44C854.06 590.44 852.03 597.71 845.23 596.44C838.43 595.17 808.57 597.44 808.57 597.44L810.82 544.03Z" fill="#F8F8F8"/>
<path d="M831.89 528.44C831.89 528.44 857.55 542.24 858.1 546.44C858.65 550.64 845.04 544.6 842.1 543.86C840.164 543.4 838.194 543.093 836.21 542.94L816.6 543.47L831.89 528.44Z" fill="#CF6F80"/>
<path opacity="0.1" d="M871.16 417.16C872.651 417.16 873.86 415.951 873.86 414.46C873.86 412.969 872.651 411.76 871.16 411.76C869.669 411.76 868.46 412.969 868.46 414.46C868.46 415.951 869.669 417.16 871.16 417.16Z" fill="black"/>
<path d="M871.16 416.06C872.651 416.06 873.86 414.851 873.86 413.36C873.86 411.869 872.651 410.66 871.16 410.66C869.669 410.66 868.46 411.869 868.46 413.36C868.46 414.851 869.669 416.06 871.16 416.06Z" fill="#3F3D56"/>
<path opacity="0.1" d="M876.13 534.04C877.621 534.04 878.83 532.831 878.83 531.34C878.83 529.849 877.621 528.64 876.13 528.64C874.639 528.64 873.43 529.849 873.43 531.34C873.43 532.831 874.639 534.04 876.13 534.04Z" fill="black"/>
<path d="M876.13 532.93C877.621 532.93 878.83 531.721 878.83 530.23C878.83 528.739 877.621 527.53 876.13 527.53C874.639 527.53 873.43 528.739 873.43 530.23C873.43 531.721 874.639 532.93 876.13 532.93Z" fill="#3F3D56"/>
<path opacity="0.1" d="M873.86 475.6C875.351 475.6 876.56 474.391 876.56 472.9C876.56 471.409 875.351 470.2 873.86 470.2C872.369 470.2 871.16 471.409 871.16 472.9C871.16 474.391 872.369 475.6 873.86 475.6Z" fill="black"/>
<path d="M873.86 474.5C875.351 474.5 876.56 473.291 876.56 471.8C876.56 470.309 875.351 469.1 873.86 469.1C872.369 469.1 871.16 470.309 871.16 471.8C871.16 473.291 872.369 474.5 873.86 474.5Z" fill="#3F3D56"/>
<path d="M936.1 542.38C936.1 542.38 937.94 545.14 936.1 546.38C934.26 547.62 936.28 550.8 936.28 550.8C936.28 550.8 931.69 553.48 933.71 555.91C935.73 558.34 934.45 569.25 934.45 569.25L928.93 578.44C928.93 578.44 929.26 584.33 929.28 592.29C929.28 604.71 928.55 622.17 924.51 630.13L925.05 695.44C925.05 695.44 905.72 702.51 889.54 700.35L887.14 595.55C887.14 595.55 890.64 536.12 891.93 524.72C892.685 518.802 892.993 512.835 892.85 506.87C892.85 506.87 892.3 489.03 890.45 480.76C890.45 480.76 888.45 444.88 888.25 434.95C888.16 430.2 888.41 416.34 888.69 403.16C889 388.75 889.35 375.16 889.35 375.16L885.7 346.27C885.7 346.27 889.35 345.91 890.45 347.37C890.943 347.83 891.479 348.242 892.05 348.6C898.36 352.86 920.62 365.96 920.62 365.96C920.62 365.96 932.94 370.86 935.89 377.88C938.84 384.9 940.89 389.88 942.32 391.88C943.75 393.88 944.53 403.28 944.53 403.28C944.53 403.28 948.77 420.58 952.08 423.51C955.39 426.44 957.77 445.04 957.77 445.04L928.52 468.04C928.52 468.04 925.95 506.3 925.4 507.78C924.85 509.26 936.1 542.38 936.1 542.38Z" fill="white"/>
<path d="M937.21 542.38C937.21 542.38 939.04 545.14 937.21 546.38C935.38 547.62 937.38 550.8 937.38 550.8C937.38 550.8 932.79 553.48 934.81 555.91C936.83 558.34 935.55 569.25 935.55 569.25L930.05 578.44C930.05 578.44 930.38 584.33 930.41 592.29C930.41 604.71 929.68 622.17 925.64 630.13L926.19 695.44C926.19 695.44 906.86 702.51 890.68 700.35L888.29 595.55C888.29 595.55 891.78 536.12 893.08 524.72C893.836 518.802 894.14 512.834 893.99 506.87C893.99 506.87 893.44 489.03 891.6 480.76C891.6 480.76 889.6 444.88 889.39 434.95C889.3 430.2 889.55 416.34 889.83 403.16C890.14 388.75 890.49 375.16 890.49 375.16L885.67 345.88C885.67 345.88 890.49 345.88 891.6 347.37C892.088 347.836 892.624 348.248 893.2 348.6C899.5 352.86 921.76 365.96 921.76 365.96C921.76 365.96 934.05 370.86 937.05 377.88C940.05 384.9 942.05 389.88 943.48 391.88C944.91 393.88 945.69 403.28 945.69 403.28C945.69 403.28 949.93 420.58 953.24 423.51C956.55 426.44 958.94 445.04 958.94 445.04L929.69 468.04C929.69 468.04 927.12 506.3 926.56 507.78C926 509.26 937.21 542.38 937.21 542.38Z" fill="#F8F8F8"/>
<path opacity="0.1" d="M902.18 383.65L904.83 391.35L890.92 405.35C891.23 390.94 891.58 377.35 891.58 377.35L886.76 348.08C886.76 348.08 891.58 348.08 892.69 349.57C893.178 350.036 893.714 350.448 894.29 350.8L906.11 384.89L902.18 383.65Z" fill="black"/>
<path d="M901.05 381.44L903.7 389.13L889.8 403.13C890.1 388.72 890.46 375.13 890.46 375.13L885.63 345.85C885.63 345.85 890.46 345.85 891.56 347.34C892.05 347.803 892.587 348.215 893.16 348.57L905.05 382.69L901.05 381.44Z" fill="#F8F8F8"/>
<path opacity="0.1" d="M901.05 305.25C901.054 308.853 900.487 312.434 899.37 315.86C899.182 315.892 898.989 315.885 898.804 315.84C898.618 315.795 898.443 315.714 898.29 315.6C898.02 306.6 893.6 298.14 888.15 290.95C886.617 288.781 884.763 286.859 882.65 285.25C880.511 283.645 877.852 282.893 875.19 283.14C872.19 283.55 869.54 285.59 866.51 285.85C862.51 286.18 858.93 283.41 854.96 283.28C853.346 283.293 851.753 283.652 850.289 284.331C848.824 285.011 847.522 285.996 846.47 287.22C844.382 289.682 842.833 292.554 841.92 295.65C840.348 300.348 839.491 305.257 839.38 310.21C839.33 313.01 839.06 316.52 836.46 317.54C836.657 315.482 836.423 313.406 835.774 311.443C835.125 309.481 834.075 307.675 832.69 306.14L832.63 306.07C832.63 305.79 832.63 305.53 832.63 305.25C832.63 296.174 836.235 287.47 842.653 281.053C849.07 274.635 857.774 271.03 866.85 271.03C875.926 271.03 884.63 274.635 891.047 281.053C897.465 287.47 901.07 296.174 901.07 305.25H901.05Z" fill="black"/>
<path d="M881.05 250.92C875.854 248.476 869.943 248.013 864.43 249.62C861.66 250.44 859.05 251.77 856.24 252.44C850.24 253.89 843.24 252.32 838.09 255.83C835.23 257.83 833.51 260.99 831.91 264.07L827.91 271.68C825.73 275.85 823.53 280.09 822.62 284.68C821.71 289.27 822.26 294.41 825.17 298.11C827.28 300.79 830.42 302.48 832.72 305.01C834.102 306.552 835.149 308.364 835.796 310.331C836.443 312.299 836.676 314.378 836.48 316.44C839.08 315.44 839.34 311.91 839.4 309.11C839.512 304.157 840.369 299.249 841.94 294.55C842.853 291.454 844.402 288.582 846.49 286.12C847.542 284.895 848.844 283.908 850.308 283.227C851.772 282.546 853.365 282.185 854.98 282.17C858.98 282.31 862.57 285.08 866.53 284.74C869.53 284.49 872.19 282.45 875.21 282.04C877.873 281.788 880.534 282.541 882.67 284.15C884.784 285.754 886.636 287.677 888.16 289.85C893.62 297.05 898.05 305.47 898.31 314.5C899.44 315.32 901.07 314.24 901.63 312.96C902.19 311.68 902.21 310.18 902.92 308.96C903.74 307.55 905.31 306.79 906.54 305.73C909.66 303.04 910.44 298.51 910.32 294.4C910.2 290.29 909.4 286.12 910.18 282.08C910.65 279.61 911.71 277.28 912.29 274.83C912.87 272.38 912.94 269.63 911.57 267.52C909.57 264.43 905.36 263.81 901.69 263.52C897.52 263.16 893.79 263.62 891.13 260.11C889.878 258.281 888.473 256.561 886.93 254.97C886.38 254.44 881.05 251.14 881.05 250.92Z" fill="#512E4E"/>
<path opacity="0.1" d="M772.33 461.8L761.89 442.49L758.58 472.29C758.58 472.29 760.42 485.53 760.05 487.56C759.68 489.59 767.59 507.79 767.59 507.79C767.59 507.79 793.72 554.34 804.39 556.73L840.39 530.97L830.83 518.83C830.83 518.83 827.52 517.54 826.69 518.83C826.69 518.83 808.93 488.29 807.1 486.09C805.27 483.89 805.62 479.46 805.62 479.46C805.62 479.46 802.86 476.52 803.78 473.76C804.7 471 798.5 461.44 798.5 461.44L804.2 456.11L772.33 461.8Z" fill="black"/>
<path d="M762.44 440.28L759.68 442.49L756.37 472.29C756.37 472.29 758.21 485.53 757.84 487.56C757.47 489.59 765.39 507.79 765.39 507.79C765.39 507.79 791.51 554.34 802.18 556.73L838.24 530.97L828.67 518.83C828.67 518.83 825.36 517.54 824.53 518.83C824.53 518.83 806.78 488.29 804.94 486.09C803.1 483.89 803.47 479.46 803.47 479.46C803.47 479.46 800.71 476.52 801.63 473.76C802.55 471 796.29 461.44 796.29 461.44L801.99 456.11L762.44 440.28Z" fill="#F8F8F8"/>
<path opacity="0.1" d="M933.71 557.06C935.71 559.49 934.45 570.41 934.45 570.41L928.93 579.54C928.93 579.54 929.26 585.44 929.28 593.4L920 596.3C919.16 596.562 918.27 596.619 917.403 596.467C916.536 596.315 915.719 595.958 915.018 595.425C914.317 594.893 913.754 594.201 913.375 593.407C912.996 592.613 912.813 591.739 912.84 590.86L914.45 539.26L936.1 547.53C934.26 548.81 936.28 551.95 936.28 551.95C936.28 551.95 931.69 554.63 933.71 557.06Z" fill="black"/>
<path d="M934.81 555.96C936.81 558.38 935.55 569.3 935.55 569.3L930.05 578.44C930.05 578.44 930.38 584.33 930.41 592.29L920.96 595.24C920.139 595.497 919.269 595.554 918.422 595.407C917.575 595.259 916.775 594.911 916.09 594.391C915.405 593.871 914.854 593.195 914.483 592.419C914.113 591.643 913.933 590.79 913.96 589.93L915.57 538.15L937.21 546.44C935.36 547.72 937.38 550.86 937.38 550.86C937.38 550.86 932.79 553.53 934.81 555.96Z" fill="#F8F8F8"/>
<path d="M941.99 531.34C941.99 531.34 940.52 540.73 936.84 541.28C933.16 541.83 931.51 556.47 927.84 555.96C924.17 555.45 926.6 542.34 926.73 539.8C926.86 537.26 922.73 526.74 925.81 524.35C928.89 521.96 938.69 524.35 938.69 524.35L941.99 531.34Z" fill="#CF6F80"/>
<path opacity="0.1" d="M949.77 459.04L956.7 445.04C956.7 445.04 959.47 455.71 959.47 461.41C959.47 467.11 963.33 467.67 963.33 467.67C963.33 467.67 967.56 472.67 965.33 476.32C963.1 479.97 962.21 489.01 962.21 489.01C962.21 489.01 962.94 506.3 959.63 508.69C956.32 511.08 955.58 516.79 955.58 516.79C955.58 516.79 949.51 527.64 949.7 530.22C949.89 532.8 941.24 550.27 941.24 550.27C941.24 550.27 945.47 528.56 920.82 519.18C920.82 519.18 920.63 511.82 922.47 509.8C924.31 507.78 927.18 506.8 925.38 496.64C923.58 486.48 924.86 474.23 924.86 471.78C924.86 469.33 930.38 454.06 930.38 454.06L949.77 459.04Z" fill="black"/>
<path d="M952.85 443.04L958.91 445.04C958.91 445.04 961.68 455.71 961.68 461.41C961.68 467.11 965.54 467.67 965.54 467.67C965.54 467.67 969.77 472.67 967.54 476.32C965.31 479.97 964.41 489.01 964.41 489.01C964.41 489.01 965.15 506.3 961.84 508.69C958.53 511.08 957.84 516.79 957.84 516.79C957.84 516.79 951.77 527.64 951.96 530.22C952.15 532.8 943.49 550.27 943.49 550.27C943.49 550.27 947.72 528.56 923.07 519.18C923.07 519.18 922.89 511.82 924.73 509.8C926.57 507.78 929.44 506.8 927.64 496.64C925.84 486.48 927.12 474.23 927.12 471.78C927.12 469.33 932.64 454.06 932.64 454.06L952.85 443.04Z" fill="#F8F8F8"/>
<path opacity="0.1" d="M818.97 805.91C818.97 805.91 828.63 799.84 834.97 804.25C841.31 808.66 818.97 805.91 818.97 805.91Z" fill="black"/>
<path opacity="0.1" d="M894.05 787.14C894.05 787.14 902.6 786.04 909.78 793.77C916.96 801.5 894.05 787.14 894.05 787.14Z" fill="black"/>
<g opacity="0.1">
<path opacity="0.1" d="M906.54 303.53C905.31 304.6 903.73 305.35 902.91 306.76C902.21 307.97 902.19 309.47 901.63 310.76C901.07 312.05 899.44 313.12 898.3 312.3C898.04 303.3 893.61 294.85 888.16 287.65C886.636 285.48 884.784 283.561 882.67 281.96C880.531 280.347 877.867 279.591 875.2 279.84C872.2 280.25 869.56 282.29 866.53 282.55C862.53 282.88 858.94 280.11 854.97 279.98C853.357 279.992 851.765 280.35 850.302 281.03C848.84 281.71 847.54 282.695 846.49 283.92C844.402 286.382 842.853 289.254 841.94 292.35C840.369 297.049 839.512 301.957 839.4 306.91C839.34 309.7 839.08 313.18 836.5 314.22C836.56 314.962 836.56 315.708 836.5 316.45C839.11 315.45 839.37 311.92 839.43 309.12C839.542 304.167 840.399 299.259 841.97 294.56C842.883 291.464 844.432 288.592 846.52 286.13C847.57 284.905 848.87 283.919 850.333 283.238C851.795 282.557 853.387 282.196 855 282.18C859 282.32 862.6 285.09 866.56 284.75C869.56 284.5 872.22 282.46 875.23 282.05C877.896 281.798 880.56 282.551 882.7 284.16C884.814 285.764 886.666 287.687 888.19 289.86C893.64 297.06 898.07 305.48 898.33 314.51C899.47 315.33 901.1 314.25 901.66 312.97C902.22 311.69 902.24 310.19 902.94 308.97C903.76 307.56 905.34 306.8 906.57 305.74C909.69 303.05 910.47 298.52 910.35 294.41C910.35 294.28 910.35 294.16 910.35 294.03C910.15 297.61 909.2 301.24 906.54 303.53Z" fill="black"/>
<path opacity="0.1" d="M832.71 302.83C830.42 300.3 827.28 298.6 825.17 295.92C823.388 293.554 822.372 290.7 822.26 287.74C821.946 291.441 822.98 295.131 825.17 298.13C827.28 300.81 830.42 302.5 832.71 305.03C834.922 307.503 836.251 310.64 836.49 313.95C836.64 311.938 836.383 309.915 835.734 308.005C835.084 306.094 834.056 304.334 832.71 302.83Z" fill="black"/>
<path opacity="0.1" d="M912.29 272.63C911.7 275.08 910.65 277.41 910.17 279.88C909.882 281.55 909.778 283.247 909.86 284.94C909.893 283.984 909.997 283.031 910.17 282.09C910.65 279.62 911.7 277.29 912.29 274.84C912.629 273.488 912.741 272.089 912.62 270.7C912.556 271.35 912.445 271.995 912.29 272.63Z" fill="black"/>
</g>
<path d="M677.816 597H108.252C99.1711 596.99 90.4649 593.378 84.0436 586.956C77.6224 580.535 74.0104 571.829 74 562.748V222.184C74.0104 213.103 77.6224 204.397 84.0436 197.975C90.4649 191.554 99.1711 187.942 108.252 187.932H677.816C686.897 187.942 695.603 191.554 702.025 197.975C708.446 204.397 712.058 213.103 712.068 222.184V562.748C712.058 571.829 708.446 580.535 702.025 586.956C695.603 593.378 686.897 596.99 677.816 597ZM108.252 193.803C100.728 193.812 93.5142 196.805 88.1938 202.125C82.8733 207.446 79.8804 214.659 79.8718 222.184V562.748C79.8804 570.272 82.8733 577.486 88.1938 582.806C93.5142 588.127 100.728 591.12 108.252 591.128H677.816C685.341 591.12 692.554 588.127 697.875 582.806C703.195 577.486 706.188 570.272 706.197 562.748V222.184C706.188 214.659 703.195 207.446 697.875 202.125C692.554 196.805 685.341 193.812 677.816 193.803H108.252Z" fill="#3F3D56"/>
<path d="M184.585 268.179C179.747 268.179 175.016 266.745 170.993 264.056C166.97 261.368 163.834 257.547 161.982 253.076C160.13 248.606 159.646 243.687 160.59 238.941C161.534 234.195 163.864 229.835 167.286 226.414C170.707 222.992 175.067 220.662 179.812 219.718C184.558 218.774 189.478 219.258 193.948 221.11C198.419 222.962 202.24 226.098 204.928 230.121C207.616 234.145 209.051 238.875 209.051 243.714C209.044 250.2 206.464 256.419 201.877 261.006C197.291 265.592 191.072 268.172 184.585 268.179ZM184.585 225.12C180.908 225.12 177.313 226.21 174.255 228.253C171.197 230.296 168.814 233.2 167.407 236.598C165.999 239.996 165.631 243.734 166.349 247.341C167.066 250.948 168.837 254.261 171.437 256.862C174.038 259.462 177.351 261.233 180.958 261.95C184.565 262.668 188.303 262.3 191.701 260.892C195.099 259.485 198.003 257.102 200.046 254.044C202.089 250.986 203.179 247.391 203.179 243.714C203.174 238.784 201.213 234.058 197.727 230.572C194.241 227.086 189.515 225.125 184.585 225.12Z" fill="#3F3D56"/>
<path d="M597.568 268.179C592.73 268.179 587.999 266.745 583.976 264.056C579.953 261.368 576.817 257.547 574.965 253.076C573.113 248.606 572.629 243.687 573.573 238.941C574.517 234.195 576.847 229.835 580.268 226.414C583.69 222.992 588.049 220.662 592.795 219.718C597.541 218.774 602.46 219.258 606.931 221.11C611.402 222.962 615.223 226.098 617.911 230.121C620.599 234.145 622.034 238.875 622.034 243.714C622.027 250.2 619.447 256.419 614.86 261.006C610.274 265.592 604.055 268.172 597.568 268.179ZM597.568 225.12C593.891 225.12 590.296 226.21 587.238 228.253C584.18 230.296 581.797 233.2 580.39 236.598C578.982 239.996 578.614 243.734 579.332 247.341C580.049 250.948 581.82 254.261 584.42 256.862C587.021 259.462 590.334 261.233 593.941 261.95C597.548 262.668 601.286 262.3 604.684 260.892C608.082 259.485 610.986 257.102 613.029 254.044C615.072 250.986 616.162 247.391 616.162 243.714C616.157 238.784 614.196 234.058 610.71 230.572C607.224 227.086 602.498 225.125 597.568 225.12Z" fill="#3F3D56"/>
<path d="M242.325 416.932H136.632C132.222 416.926 127.993 415.172 124.874 412.053C121.755 408.934 120.001 404.706 119.996 400.295V337.662C120.001 333.252 121.755 329.023 124.874 325.904C127.993 322.785 132.222 321.031 136.632 321.026H242.325C246.736 321.031 250.964 322.785 254.083 325.904C257.202 329.023 258.956 333.252 258.962 337.662V400.295C258.956 404.706 257.202 408.934 254.083 412.053C250.964 415.172 246.736 416.926 242.325 416.932Z" fill="#EEEEEE"/>
<path d="M445.88 416.932H340.188C335.777 416.926 331.549 415.172 328.43 412.053C325.311 408.934 323.557 404.706 323.551 400.295V337.662C323.557 333.252 325.311 329.023 328.43 325.904C331.549 322.785 335.777 321.031 340.188 321.026H445.88C450.291 321.031 454.52 322.785 457.638 325.904C460.757 329.023 462.512 333.252 462.517 337.662V400.295C462.512 404.706 460.757 408.934 457.638 412.053C454.52 415.172 450.291 416.926 445.88 416.932Z" fill="#EEEEEE"/>
<path d="M543.744 322.983C539.852 322.987 536.12 324.535 533.368 327.287C530.616 330.039 529.068 333.77 529.064 337.662V400.295C529.068 404.187 530.616 407.918 533.368 410.67C536.12 413.422 539.852 414.97 543.744 414.974H649.436C653.328 414.97 657.059 413.422 659.811 410.67C662.563 407.918 664.111 404.187 664.115 400.295V337.662C664.111 333.77 662.563 330.039 659.811 327.287C657.059 324.535 653.328 322.987 649.436 322.983H543.744Z" fill="#EEEEEE"/>
<path d="M243.303 542.197H137.611C133.2 542.191 128.972 540.437 125.853 537.318C122.734 534.199 120.98 529.971 120.974 525.56V462.927C120.98 458.517 122.734 454.288 125.853 451.169C128.972 448.05 133.2 446.296 137.611 446.291H243.303C247.714 446.296 251.943 448.05 255.062 451.169C258.18 454.288 259.935 458.517 259.94 462.927V525.56C259.935 529.971 258.18 534.199 255.062 537.318C251.943 540.437 247.714 542.191 243.303 542.197Z" fill="#EEEEEE"/>
<path d="M446.859 542.197H341.167C336.756 542.191 332.527 540.437 329.408 537.318C326.29 534.199 324.535 529.971 324.53 525.56V462.927C324.535 458.517 326.29 454.288 329.408 451.169C332.527 448.05 336.756 446.296 341.167 446.291H446.859C451.27 446.296 455.498 448.05 458.617 451.169C461.736 454.288 463.49 458.517 463.496 462.927V525.56C463.49 529.971 461.736 534.199 458.617 537.318C455.498 540.437 451.27 542.191 446.859 542.197Z" fill="#EEEEEE"/>
<path d="M650.415 542.197H544.722C540.311 542.191 536.083 540.437 532.964 537.318C529.845 534.199 528.091 529.971 528.085 525.56V462.927C528.091 458.517 529.845 454.288 532.964 451.169C536.083 448.05 540.311 446.296 544.722 446.291H650.415C654.825 446.296 659.054 448.05 662.173 451.169C665.292 454.288 667.046 458.517 667.051 462.927V525.56C667.046 529.971 665.292 534.199 662.173 537.318C659.054 540.437 654.825 542.191 650.415 542.197Z" fill="#EEEEEE"/>
<path d="M184.585 250.564C182.769 250.562 181.028 249.839 179.744 248.555C178.46 247.271 177.737 245.53 177.735 243.714V145.85C177.735 144.034 178.457 142.291 179.741 141.006C181.026 139.722 182.769 139 184.585 139C186.402 139 188.145 139.722 189.429 141.006C190.714 142.291 191.436 144.034 191.436 145.85V243.714C191.434 245.53 190.711 247.271 189.427 248.555C188.143 249.839 186.402 250.562 184.585 250.564Z" fill="#3F3D56"/>
<path d="M597.568 250.564C595.752 250.562 594.011 249.839 592.727 248.555C591.443 247.271 590.72 245.53 590.718 243.714V145.85C590.718 144.034 591.44 142.291 592.725 141.006C594.009 139.722 595.752 139 597.568 139C599.385 139 601.128 139.722 602.412 141.006C603.697 142.291 604.419 144.034 604.419 145.85V243.714C604.417 245.53 603.694 247.271 602.41 248.555C601.126 249.839 599.385 250.562 597.568 250.564Z" fill="#3F3D56"/>
<path d="M185.483 394.367C182.601 394.372 179.796 393.439 177.49 391.711L177.348 391.603L147.244 368.575C144.428 366.416 142.585 363.227 142.12 359.71C141.656 356.192 142.607 352.634 144.766 349.818C146.925 347.002 150.114 345.159 153.631 344.695C157.149 344.23 160.707 345.182 163.522 347.341L183.021 362.293L229.099 302.18C230.167 300.787 231.5 299.617 233.02 298.739C234.54 297.86 236.219 297.289 237.96 297.059C239.701 296.829 241.47 296.944 243.167 297.398C244.863 297.852 246.454 298.636 247.847 299.704L247.851 299.707L247.565 300.104L247.859 299.707C250.671 301.868 252.51 305.056 252.974 308.572C253.438 312.087 252.488 315.643 250.332 318.459L196.136 389.134C194.882 390.762 193.27 392.08 191.424 392.985C189.579 393.889 187.55 394.357 185.495 394.351L185.483 394.367Z" fill="#6C63FF"/>
<path d="M394.91 517.674C392.029 517.679 389.223 516.747 386.918 515.018L386.775 514.911L356.671 491.882C353.855 489.724 352.012 486.535 351.548 483.017C351.083 479.5 352.035 475.942 354.193 473.126C356.352 470.31 359.541 468.467 363.058 468.002C366.576 467.538 370.134 468.49 372.95 470.648L392.449 485.601L438.526 425.488C439.594 424.094 440.927 422.925 442.447 422.046C443.968 421.167 445.646 420.597 447.387 420.367C449.128 420.137 450.898 420.252 452.594 420.706C454.291 421.16 455.881 421.943 457.275 423.012L457.279 423.015L456.993 423.412L457.286 423.015C460.098 425.176 461.938 428.364 462.401 431.879C462.865 435.395 461.915 438.951 459.76 441.767L405.563 512.441C404.309 514.07 402.697 515.388 400.852 516.292C399.006 517.197 396.977 517.665 394.922 517.659L394.91 517.674Z" fill="#6C63FF"/>
<path d="M592.594 394.367C589.712 394.372 586.907 393.439 584.602 391.711L584.459 391.603L554.355 368.575C551.539 366.416 549.696 363.227 549.231 359.71C548.767 356.192 549.718 352.634 551.877 349.818C554.036 347.002 557.225 345.159 560.742 344.695C564.26 344.23 567.818 345.182 570.634 347.341L590.133 362.293L636.21 302.18C637.278 300.787 638.611 299.617 640.131 298.739C641.651 297.86 643.33 297.289 645.071 297.059C646.812 296.829 648.581 296.944 650.278 297.398C651.974 297.852 653.565 298.636 654.958 299.704L654.962 299.707L654.676 300.104L654.97 299.707C657.782 301.868 659.621 305.056 660.085 308.572C660.549 312.087 659.599 315.643 657.444 318.459L603.247 389.134C601.993 390.762 600.381 392.08 598.535 392.985C596.69 393.889 594.661 394.357 592.606 394.351L592.594 394.367Z" fill="#6C63FF"/>
</g>
<defs>
<linearGradient id="paint0_linear" x1="190279" y1="541351" x2="190279" y2="162729" gradientUnits="userSpaceOnUse">
<stop stop-color="#808080" stop-opacity="0.25"/>
<stop offset="0.54" stop-color="#808080" stop-opacity="0.12"/>
<stop offset="1" stop-color="#808080" stop-opacity="0.1"/>
</linearGradient>
<clipPath id="clip0">
<rect width="1167.61" height="862.87" fill="white"/>
</clipPath>
</defs>
</svg>
